<svg xmlns="http://www.w3.org/2000/svg" viewBox="0 0 988.39 441.5" width="988.39" height="441.5" style="--bg:#fdfdfb;--fg:#2c2f34;--line:#8e949c;--accent:#334fa9;--muted:#73767c;--surface:#ffffff;--border:#d4dee3;background:var(--bg)">
<style>

  text { font-family: 'system-ui', system-ui, sans-serif; }
  svg {
    /* Derived from --bg and --fg (overridable via --line, --accent, etc.) */
    --_text:          var(--fg);
    --_text-sec:      var(--muted, color-mix(in srgb, var(--fg) 60%, var(--bg)));
    --_text-muted:    var(--muted, color-mix(in srgb, var(--fg) 40%, var(--bg)));
    --_text-faint:    color-mix(in srgb, var(--fg) 25%, var(--bg));
    --_line:          var(--line, color-mix(in srgb, var(--fg) 30%, var(--bg)));
    --_arrow:         var(--accent, color-mix(in srgb, var(--fg) 50%, var(--bg)));
    --_node-fill:     var(--surface, color-mix(in srgb, var(--fg) 3%, var(--bg)));
    --_node-stroke:   var(--border, color-mix(in srgb, var(--fg) 20%, var(--bg)));
    --_group-fill:    var(--bg);
    --_group-hdr:     color-mix(in srgb, var(--fg) 5%, var(--bg));
    --_inner-stroke:  color-mix(in srgb, var(--fg) 12%, var(--bg));
    --_key-badge:     color-mix(in srgb, var(--fg) 10%, var(--bg));
  }
</style>
<defs>
  <marker id="arrowhead" markerWidth="8" markerHeight="4.8" refX="8" refY="2.4" orient="auto">
    <polygon points="0 0, 8 2.4, 0 4.8" fill="var(--_arrow)" />
  </marker>
  <marker id="arrowhead-start" markerWidth="8" markerHeight="4.8" refX="0" refY="2.4" orient="auto-start-reverse">
    <polygon points="8 0, 0 2.4, 8 4.8" fill="var(--_arrow)" />
  </marker>
</defs>
<rect x="40" y="200" width="908.39" height="201.5" rx="0" ry="0" fill="var(--_group-fill)" stroke="var(--_node-stroke)" stroke-width="1" />
<rect x="40" y="200" width="908.39" height="28" rx="0" ry="0" fill="var(--_group-hdr)" stroke="var(--_node-stroke)" stroke-width="1" />
<text x="52" y="214" dy="0.35em" font-size="12" font-weight="600" fill="var(--_text-sec)">Server Mac · server.enabled</text>
<rect x="40" y="40" width="322.25" height="176" rx="0" ry="0" fill="var(--_group-fill)" stroke="var(--_node-stroke)" stroke-width="1" />
<rect x="40" y="40" width="322.25" height="28" rx="0" ry="0" fill="var(--_group-hdr)" stroke="var(--_node-stroke)" stroke-width="1" />
<text x="52" y="54" dy="0.35em" font-size="12" font-weight="600" fill="var(--_text-sec)">Your Tailscale network</text>
<polyline points="342.25,351.5 362.25,351.5 362.25,335.75 790.8399999999999,335.75 790.8399999999999,319.5" fill="none" stroke="var(--_line)" stroke-width="0.75" />
<polyline points="342.25,351.5 362.25,351.5 362.25,361.5 653.29,361.5" fill="none" stroke="var(--_line)" stroke-width="0.75" />
<polyline points="313.65,176 382.25,176 382.25,301.5 660.4399999999999,301.5" fill="none" stroke="var(--_line)" stroke-width="0.75" marker-end="url(#arrowhead)" />
<polyline points="263.6,116 382.25,116 382.25,264.5 790.8399999999999,264.5 790.8399999999999,283.5" fill="none" stroke="var(--_line)" stroke-width="0.75" marker-end="url(#arrowhead)" />
<rect x="398.25" y="288" width="199.04000000000002" height="27" rx="4" ry="4" fill="var(--bg)" stroke="var(--_inner-stroke)" stroke-width="0.5" />
<text x="497.77" y="301.5" text-anchor="middle" dy="0.35em" font-size="11" font-weight="400" fill="var(--_text-muted)">calls · events · terminal stream</text>
<rect x="478.33" y="251" width="38.88" height="27" rx="4" ry="4" fill="var(--bg)" stroke="var(--_inner-stroke)" stroke-width="0.5" />
<text x="497.77" y="264.5" text-anchor="middle" dy="0.35em" font-size="11" font-weight="400" fill="var(--_text-muted)">same</text>
<rect x="60" y="333.5" width="282.25" height="36" rx="0" ry="0" fill="var(--_node-fill)" stroke="var(--_node-stroke)" stroke-width="0.75" />
<rect x="660.4399999999999" y="283.5" width="260.8" height="36" rx="0" ry="0" fill="var(--_node-fill)" stroke="var(--_node-stroke)" stroke-width="0.75" />
<rect x="653.29" y="343.5" width="275.1" height="36" rx="0" ry="0" fill="var(--_node-fill)" stroke="var(--_node-stroke)" stroke-width="0.75" />
<rect x="88.6" y="158" width="225.05" height="36" rx="0" ry="0" fill="var(--_node-fill)" stroke="var(--_node-stroke)" stroke-width="0.75" />
<rect x="138.65" y="98" width="124.95" height="36" rx="0" ry="0" fill="var(--_node-fill)" stroke="var(--_node-stroke)" stroke-width="0.75" />
<text x="201.125" y="351.5" text-anchor="middle" dy="0.35em" font-size="13" font-weight="500" fill="var(--_text)">The Hive · menu-bar item, no window</text>
<text x="790.8399999999999" y="301.5" text-anchor="middle" dy="0.35em" font-size="13" font-weight="500" fill="var(--_text)">Listener · tailnet address :7433</text>
<text x="790.8399999999999" y="361.5" text-anchor="middle" dy="0.35em" font-size="13" font-weight="500" fill="var(--_text)">Sessions · agents · ledger · inbox</text>
<text x="201.125" y="176" text-anchor="middle" dy="0.35em" font-size="13" font-weight="500" fill="var(--_text)">Laptop · remote.mode remote</text>
<text x="201.125" y="116" text-anchor="middle" dy="0.35em" font-size="13" font-weight="500" fill="var(--_text)">Second device</text>
</svg>